<mxfile host="Electron" modified="2024-02-13T03:02:43.364Z" agent="Mozilla/5.0 (Windows NT 10.0; Win64; x64) AppleWebKit/537.36 (KHTML, like Gecko) draw.io/23.0.2 Chrome/120.0.6099.109 Electron/28.1.0 Safari/537.36" etag="JLvvIPVif7mkOMpzzGR6" version="23.0.2" type="device">
  <diagram name="Page-1" id="qoPSK3_bSVM6c5hKkzRn">
    <mxGraphModel dx="1036" dy="606" grid="1" gridSize="10" guides="1" tooltips="1" connect="1" arrows="1" fold="1" page="1" pageScale="1" pageWidth="15000" pageHeight="15000" math="0" shadow="0">
      <root>
        <mxCell id="0" />
        <mxCell id="1" parent="0" />
        <mxCell id="u_31ab_1VjcwzQLcm0ZK-1" value="&lt;h1 style=&quot;&quot; class=&quot;template-name-title&quot;&gt;&lt;font style=&quot;font-size: 19px;&quot;&gt;&amp;nbsp;Airline Reservation System.&lt;/font&gt;&lt;/h1&gt;" style="swimlane;whiteSpace=wrap;html=1;fontStyle=1;fillColor=#b0e3e6;strokeColor=#0e8088;strokeWidth=2;" parent="1" vertex="1">
          <mxGeometry x="7070" y="5300" width="770" height="700" as="geometry" />
        </mxCell>
        <mxCell id="u_31ab_1VjcwzQLcm0ZK-2" value="Registration" style="ellipse;whiteSpace=wrap;html=1;fontStyle=1;fillColor=#ffe6cc;strokeColor=#d79b00;" parent="u_31ab_1VjcwzQLcm0ZK-1" vertex="1">
          <mxGeometry x="310" y="40" width="170" height="50" as="geometry" />
        </mxCell>
        <mxCell id="u_31ab_1VjcwzQLcm0ZK-26" value="Login" style="ellipse;whiteSpace=wrap;html=1;fontStyle=1;fillColor=#ffe6cc;strokeColor=#d79b00;" parent="u_31ab_1VjcwzQLcm0ZK-1" vertex="1">
          <mxGeometry x="310" y="110" width="170" height="50" as="geometry" />
        </mxCell>
        <mxCell id="u_31ab_1VjcwzQLcm0ZK-27" value="Logout" style="ellipse;whiteSpace=wrap;html=1;fontStyle=1;fillColor=#ffe6cc;strokeColor=#d79b00;" parent="u_31ab_1VjcwzQLcm0ZK-1" vertex="1">
          <mxGeometry x="300" y="640" width="170" height="50" as="geometry" />
        </mxCell>
        <mxCell id="u_31ab_1VjcwzQLcm0ZK-29" value="Search Flight" style="ellipse;whiteSpace=wrap;html=1;fontStyle=1;fillColor=#ffe6cc;strokeColor=#d79b00;" parent="u_31ab_1VjcwzQLcm0ZK-1" vertex="1">
          <mxGeometry x="20" y="160" width="170" height="50" as="geometry" />
        </mxCell>
        <mxCell id="u_31ab_1VjcwzQLcm0ZK-30" value="Check Flight status" style="ellipse;whiteSpace=wrap;html=1;fontStyle=1;fillColor=#ffe6cc;strokeColor=#d79b00;" parent="u_31ab_1VjcwzQLcm0ZK-1" vertex="1">
          <mxGeometry x="20" y="230" width="170" height="50" as="geometry" />
        </mxCell>
        <mxCell id="u_31ab_1VjcwzQLcm0ZK-37" value="book ticket" style="ellipse;whiteSpace=wrap;html=1;fontStyle=1;fillColor=#ffe6cc;strokeColor=#d79b00;" parent="u_31ab_1VjcwzQLcm0ZK-1" vertex="1">
          <mxGeometry x="20" y="300" width="170" height="50" as="geometry" />
        </mxCell>
        <mxCell id="u_31ab_1VjcwzQLcm0ZK-38" value="make payment" style="ellipse;whiteSpace=wrap;html=1;fontStyle=1;fillColor=#ffe6cc;strokeColor=#d79b00;" parent="u_31ab_1VjcwzQLcm0ZK-1" vertex="1">
          <mxGeometry x="20" y="440" width="170" height="50" as="geometry" />
        </mxCell>
        <mxCell id="u_31ab_1VjcwzQLcm0ZK-39" value="cancle ticket" style="ellipse;whiteSpace=wrap;html=1;fontStyle=1;fillColor=#ffe6cc;strokeColor=#d79b00;" parent="u_31ab_1VjcwzQLcm0ZK-1" vertex="1">
          <mxGeometry x="20" y="370" width="170" height="50" as="geometry" />
        </mxCell>
        <mxCell id="u_31ab_1VjcwzQLcm0ZK-42" value="Update flight schedule" style="ellipse;whiteSpace=wrap;html=1;fontStyle=1;fillColor=#ffe6cc;strokeColor=#d79b00;" parent="u_31ab_1VjcwzQLcm0ZK-1" vertex="1">
          <mxGeometry x="20" y="510" width="170" height="50" as="geometry" />
        </mxCell>
        <mxCell id="u_31ab_1VjcwzQLcm0ZK-44" value="System Maintenance" style="ellipse;whiteSpace=wrap;html=1;fontStyle=1;fillColor=#ffe6cc;strokeColor=#d79b00;" parent="u_31ab_1VjcwzQLcm0ZK-1" vertex="1">
          <mxGeometry x="540" y="170" width="170" height="50" as="geometry" />
        </mxCell>
        <mxCell id="u_31ab_1VjcwzQLcm0ZK-46" value="Check payment Transcation &amp;amp; detail" style="ellipse;whiteSpace=wrap;html=1;fontStyle=1;fillColor=#ffe6cc;strokeColor=#d79b00;" parent="u_31ab_1VjcwzQLcm0ZK-1" vertex="1">
          <mxGeometry x="540" y="240" width="170" height="50" as="geometry" />
        </mxCell>
        <mxCell id="u_31ab_1VjcwzQLcm0ZK-48" value="Generate E-ticket" style="ellipse;whiteSpace=wrap;html=1;fontStyle=1;fillColor=#ffe6cc;strokeColor=#d79b00;" parent="u_31ab_1VjcwzQLcm0ZK-1" vertex="1">
          <mxGeometry x="540" y="310" width="170" height="50" as="geometry" />
        </mxCell>
        <mxCell id="u_31ab_1VjcwzQLcm0ZK-50" value="Payment Processing" style="ellipse;whiteSpace=wrap;html=1;fontStyle=1;fillColor=#ffe6cc;strokeColor=#d79b00;" parent="u_31ab_1VjcwzQLcm0ZK-1" vertex="1">
          <mxGeometry x="540" y="440" width="170" height="50" as="geometry" />
        </mxCell>
        <mxCell id="u_31ab_1VjcwzQLcm0ZK-51" value="&lt;strong&gt;Payment Gateway Error&lt;/strong&gt;" style="ellipse;whiteSpace=wrap;html=1;fontStyle=1;fillColor=#ffe6cc;strokeColor=#d79b00;" parent="u_31ab_1VjcwzQLcm0ZK-1" vertex="1">
          <mxGeometry x="540" y="510" width="170" height="50" as="geometry" />
        </mxCell>
        <mxCell id="u_31ab_1VjcwzQLcm0ZK-52" value="&amp;lt;&amp;lt;include&amp;gt;&amp;gt;" style="html=1;verticalAlign=bottom;labelBackgroundColor=none;endArrow=open;endFill=0;dashed=1;rounded=0;entryX=0;entryY=0.5;entryDx=0;entryDy=0;fillColor=#e1d5e7;strokeColor=#9673a6;strokeWidth=2;" parent="u_31ab_1VjcwzQLcm0ZK-1" target="u_31ab_1VjcwzQLcm0ZK-50" edge="1">
          <mxGeometry y="5" width="160" relative="1" as="geometry">
            <mxPoint x="190" y="464.5" as="sourcePoint" />
            <mxPoint x="350" y="464.5" as="targetPoint" />
            <mxPoint y="1" as="offset" />
          </mxGeometry>
        </mxCell>
        <mxCell id="u_31ab_1VjcwzQLcm0ZK-56" value="" style="endArrow=classic;html=1;rounded=0;entryX=0.006;entryY=0.623;entryDx=0;entryDy=0;entryPerimeter=0;fillColor=#60a917;strokeColor=#2D7600;strokeWidth=2;" parent="u_31ab_1VjcwzQLcm0ZK-1" edge="1">
          <mxGeometry width="50" height="50" relative="1" as="geometry">
            <mxPoint x="-120" y="60" as="sourcePoint" />
            <mxPoint x="20" y="251.14999999999964" as="targetPoint" />
          </mxGeometry>
        </mxCell>
        <mxCell id="u_31ab_1VjcwzQLcm0ZK-66" value="" style="endArrow=classic;html=1;rounded=0;fillColor=#e3c800;strokeColor=#B09500;strokeWidth=2;" parent="u_31ab_1VjcwzQLcm0ZK-1" edge="1">
          <mxGeometry width="50" height="50" relative="1" as="geometry">
            <mxPoint x="890" y="540" as="sourcePoint" />
            <mxPoint x="710" y="540" as="targetPoint" />
          </mxGeometry>
        </mxCell>
        <mxCell id="u_31ab_1VjcwzQLcm0ZK-69" value="Cancle Flight" style="ellipse;whiteSpace=wrap;html=1;fontStyle=1;fillColor=#ffe6cc;strokeColor=#d79b00;" parent="u_31ab_1VjcwzQLcm0ZK-1" vertex="1">
          <mxGeometry x="20" y="590" width="170" height="50" as="geometry" />
        </mxCell>
        <mxCell id="u_31ab_1VjcwzQLcm0ZK-76" value="Refund Payment" style="ellipse;whiteSpace=wrap;html=1;fontStyle=1;fillColor=#ffe6cc;strokeColor=#d79b00;" parent="u_31ab_1VjcwzQLcm0ZK-1" vertex="1">
          <mxGeometry x="540" y="590" width="170" height="50" as="geometry" />
        </mxCell>
        <mxCell id="u_31ab_1VjcwzQLcm0ZK-77" value="&amp;lt;&amp;lt;include&amp;gt;&amp;gt;" style="html=1;verticalAlign=bottom;labelBackgroundColor=none;endArrow=open;endFill=0;dashed=1;rounded=0;entryX=0;entryY=0.5;entryDx=0;entryDy=0;strokeWidth=2;fillColor=#e1d5e7;strokeColor=#9673a6;" parent="u_31ab_1VjcwzQLcm0ZK-1" edge="1">
          <mxGeometry y="5" width="160" relative="1" as="geometry">
            <mxPoint x="190" y="620" as="sourcePoint" />
            <mxPoint x="540" y="620.5" as="targetPoint" />
            <mxPoint y="1" as="offset" />
          </mxGeometry>
        </mxCell>
        <mxCell id="u_31ab_1VjcwzQLcm0ZK-24" value="&lt;b style=&quot;&quot;&gt;&lt;font color=&quot;#009900&quot;&gt;Passenger&lt;/font&gt;&lt;/b&gt;" style="shape=umlActor;verticalLabelPosition=bottom;verticalAlign=top;html=1;outlineConnect=0;fillColor=#60a917;fontColor=#ffffff;strokeColor=#2D7600;" parent="1" vertex="1">
          <mxGeometry x="6890" y="5340" width="30" height="60" as="geometry" />
        </mxCell>
        <mxCell id="u_31ab_1VjcwzQLcm0ZK-41" value="&lt;b&gt;&lt;font color=&quot;#007fff&quot;&gt;Arline Administrator&lt;/font&gt;&lt;/b&gt;" style="shape=umlActor;verticalLabelPosition=bottom;verticalAlign=top;html=1;outlineConnect=0;fillColor=#1ba1e2;fontColor=#ffffff;strokeColor=#006EAF;" parent="1" vertex="1">
          <mxGeometry x="6890" y="5870" width="30" height="60" as="geometry" />
        </mxCell>
        <mxCell id="u_31ab_1VjcwzQLcm0ZK-43" value="&lt;font color=&quot;#ff0080&quot;&gt;&lt;b&gt;Admin&lt;/b&gt;&lt;/font&gt;" style="shape=umlActor;verticalLabelPosition=bottom;verticalAlign=top;html=1;outlineConnect=0;fillColor=#d80073;fontColor=#ffffff;strokeColor=#A50040;" parent="1" vertex="1">
          <mxGeometry x="7970" y="5340" width="30" height="60" as="geometry" />
        </mxCell>
        <mxCell id="u_31ab_1VjcwzQLcm0ZK-47" value="&lt;font color=&quot;#cc6600&quot;&gt;&lt;b&gt;Airline Server&lt;/b&gt;&lt;/font&gt;" style="shape=umlActor;verticalLabelPosition=bottom;verticalAlign=top;html=1;outlineConnect=0;fillColor=#fa6800;fontColor=#000000;strokeColor=#C73500;" parent="1" vertex="1">
          <mxGeometry x="7976" y="5610" width="30" height="60" as="geometry" />
        </mxCell>
        <mxCell id="u_31ab_1VjcwzQLcm0ZK-49" value="&lt;b&gt;&lt;font color=&quot;#cccc00&quot;&gt;Bank Server&lt;/font&gt;&lt;/b&gt;" style="shape=umlActor;verticalLabelPosition=bottom;verticalAlign=top;html=1;outlineConnect=0;fillColor=#e3c800;fontColor=#000000;strokeColor=#B09500;" parent="1" vertex="1">
          <mxGeometry x="7976" y="5820" width="30" height="60" as="geometry" />
        </mxCell>
        <mxCell id="u_31ab_1VjcwzQLcm0ZK-53" value="" style="endArrow=classic;html=1;rounded=0;entryX=0;entryY=0.4;entryDx=0;entryDy=0;entryPerimeter=0;fillColor=#60a917;strokeColor=#2D7600;fontStyle=1;strokeWidth=2;" parent="1" target="u_31ab_1VjcwzQLcm0ZK-2" edge="1">
          <mxGeometry width="50" height="50" relative="1" as="geometry">
            <mxPoint x="6950" y="5360" as="sourcePoint" />
            <mxPoint x="7390" y="5480" as="targetPoint" />
          </mxGeometry>
        </mxCell>
        <mxCell id="u_31ab_1VjcwzQLcm0ZK-54" value="" style="endArrow=classic;html=1;rounded=0;entryX=0;entryY=0.5;entryDx=0;entryDy=0;fillColor=#60a917;strokeColor=#2D7600;strokeWidth=2;" parent="1" target="u_31ab_1VjcwzQLcm0ZK-26" edge="1">
          <mxGeometry width="50" height="50" relative="1" as="geometry">
            <mxPoint x="6950" y="5360" as="sourcePoint" />
            <mxPoint x="7390" y="5370" as="targetPoint" />
          </mxGeometry>
        </mxCell>
        <mxCell id="u_31ab_1VjcwzQLcm0ZK-55" value="" style="endArrow=classic;html=1;rounded=0;entryX=0;entryY=0.5;entryDx=0;entryDy=0;fillColor=#60a917;strokeColor=#2D7600;strokeWidth=2;" parent="1" target="u_31ab_1VjcwzQLcm0ZK-29" edge="1">
          <mxGeometry width="50" height="50" relative="1" as="geometry">
            <mxPoint x="6950" y="5360" as="sourcePoint" />
            <mxPoint x="7390" y="5445" as="targetPoint" />
          </mxGeometry>
        </mxCell>
        <mxCell id="u_31ab_1VjcwzQLcm0ZK-57" value="" style="endArrow=classic;html=1;rounded=0;entryX=0;entryY=0.5;entryDx=0;entryDy=0;fillColor=#60a917;strokeColor=#2D7600;strokeWidth=2;" parent="1" target="u_31ab_1VjcwzQLcm0ZK-37" edge="1">
          <mxGeometry width="50" height="50" relative="1" as="geometry">
            <mxPoint x="6950" y="5360" as="sourcePoint" />
            <mxPoint x="7410" y="5465" as="targetPoint" />
          </mxGeometry>
        </mxCell>
        <mxCell id="u_31ab_1VjcwzQLcm0ZK-58" value="" style="endArrow=classic;html=1;rounded=0;entryX=0;entryY=0.5;entryDx=0;entryDy=0;fillColor=#60a917;strokeColor=#2D7600;strokeWidth=2;" parent="1" target="u_31ab_1VjcwzQLcm0ZK-39" edge="1">
          <mxGeometry width="50" height="50" relative="1" as="geometry">
            <mxPoint x="6950" y="5360" as="sourcePoint" />
            <mxPoint x="7100" y="5635" as="targetPoint" />
          </mxGeometry>
        </mxCell>
        <mxCell id="u_31ab_1VjcwzQLcm0ZK-59" value="" style="endArrow=classic;html=1;rounded=0;entryX=0.005;entryY=0.459;entryDx=0;entryDy=0;entryPerimeter=0;fillColor=#60a917;strokeColor=#2D7600;strokeWidth=2;" parent="1" target="u_31ab_1VjcwzQLcm0ZK-38" edge="1">
          <mxGeometry width="50" height="50" relative="1" as="geometry">
            <mxPoint x="6950" y="5360" as="sourcePoint" />
            <mxPoint x="7090" y="5760" as="targetPoint" />
          </mxGeometry>
        </mxCell>
        <mxCell id="u_31ab_1VjcwzQLcm0ZK-60" value="" style="endArrow=classic;html=1;rounded=0;entryX=1;entryY=0.5;entryDx=0;entryDy=0;fillColor=#d80073;strokeColor=#A50040;strokeWidth=2;" parent="1" target="u_31ab_1VjcwzQLcm0ZK-26" edge="1">
          <mxGeometry width="50" height="50" relative="1" as="geometry">
            <mxPoint x="7950" y="5360" as="sourcePoint" />
            <mxPoint x="7555" y="5444" as="targetPoint" />
          </mxGeometry>
        </mxCell>
        <mxCell id="u_31ab_1VjcwzQLcm0ZK-61" value="" style="endArrow=classic;html=1;rounded=0;entryX=1;entryY=0.5;entryDx=0;entryDy=0;fillColor=#d80073;strokeColor=#A50040;strokeWidth=2;" parent="1" target="u_31ab_1VjcwzQLcm0ZK-44" edge="1">
          <mxGeometry width="50" height="50" relative="1" as="geometry">
            <mxPoint x="7950" y="5360" as="sourcePoint" />
            <mxPoint x="7560" y="5445" as="targetPoint" />
          </mxGeometry>
        </mxCell>
        <mxCell id="u_31ab_1VjcwzQLcm0ZK-62" value="" style="endArrow=classic;html=1;rounded=0;entryX=1;entryY=0.5;entryDx=0;entryDy=0;fillColor=#d80073;strokeColor=#A50040;strokeWidth=2;" parent="1" target="u_31ab_1VjcwzQLcm0ZK-46" edge="1">
          <mxGeometry width="50" height="50" relative="1" as="geometry">
            <mxPoint x="7950" y="5360" as="sourcePoint" />
            <mxPoint x="7790" y="5505" as="targetPoint" />
          </mxGeometry>
        </mxCell>
        <mxCell id="u_31ab_1VjcwzQLcm0ZK-63" value="" style="endArrow=classic;html=1;rounded=0;entryX=1;entryY=0.6;entryDx=0;entryDy=0;entryPerimeter=0;fillColor=#fa6800;strokeColor=#C73500;strokeWidth=2;" parent="1" target="u_31ab_1VjcwzQLcm0ZK-46" edge="1">
          <mxGeometry width="50" height="50" relative="1" as="geometry">
            <mxPoint x="7970" y="5640" as="sourcePoint" />
            <mxPoint x="7790" y="5575" as="targetPoint" />
          </mxGeometry>
        </mxCell>
        <mxCell id="u_31ab_1VjcwzQLcm0ZK-64" value="" style="endArrow=classic;html=1;rounded=0;entryX=1.007;entryY=0.583;entryDx=0;entryDy=0;entryPerimeter=0;fillColor=#fa6800;strokeColor=#C73500;strokeWidth=2;" parent="1" target="u_31ab_1VjcwzQLcm0ZK-48" edge="1">
          <mxGeometry width="50" height="50" relative="1" as="geometry">
            <mxPoint x="7970" y="5639" as="sourcePoint" />
            <mxPoint x="7790" y="5640" as="targetPoint" />
          </mxGeometry>
        </mxCell>
        <mxCell id="u_31ab_1VjcwzQLcm0ZK-65" value="" style="endArrow=classic;html=1;rounded=0;entryX=1;entryY=0.5;entryDx=0;entryDy=0;fillColor=#e3c800;strokeColor=#B09500;strokeWidth=2;" parent="1" target="u_31ab_1VjcwzQLcm0ZK-50" edge="1">
          <mxGeometry width="50" height="50" relative="1" as="geometry">
            <mxPoint x="7960" y="5840" as="sourcePoint" />
            <mxPoint x="7791" y="5649" as="targetPoint" />
          </mxGeometry>
        </mxCell>
        <mxCell id="u_31ab_1VjcwzQLcm0ZK-67" value="" style="endArrow=classic;html=1;rounded=0;entryX=-0.007;entryY=0.644;entryDx=0;entryDy=0;entryPerimeter=0;fillColor=#1ba1e2;strokeColor=#006EAF;strokeWidth=2;" parent="1" target="u_31ab_1VjcwzQLcm0ZK-42" edge="1">
          <mxGeometry width="50" height="50" relative="1" as="geometry">
            <mxPoint x="6950" y="5920" as="sourcePoint" />
            <mxPoint x="6920" y="5850" as="targetPoint" />
          </mxGeometry>
        </mxCell>
        <mxCell id="u_31ab_1VjcwzQLcm0ZK-68" value="" style="endArrow=classic;html=1;rounded=0;strokeWidth=2;fillColor=#1ba1e2;strokeColor=#006EAF;" parent="1" edge="1">
          <mxGeometry width="50" height="50" relative="1" as="geometry">
            <mxPoint x="6950" y="5920" as="sourcePoint" />
            <mxPoint x="7090" y="5550" as="targetPoint" />
          </mxGeometry>
        </mxCell>
        <mxCell id="u_31ab_1VjcwzQLcm0ZK-71" value="" style="endArrow=classic;html=1;rounded=0;entryX=1;entryY=0.4;entryDx=0;entryDy=0;entryPerimeter=0;fillColor=#a20025;strokeColor=#6F0000;strokeWidth=2;" parent="1" target="u_31ab_1VjcwzQLcm0ZK-27" edge="1">
          <mxGeometry width="50" height="50" relative="1" as="geometry">
            <mxPoint x="7950" y="5360" as="sourcePoint" />
            <mxPoint x="7540" y="5970" as="targetPoint" />
            <Array as="points">
              <mxPoint x="7950" y="5960" />
            </Array>
          </mxGeometry>
        </mxCell>
        <mxCell id="u_31ab_1VjcwzQLcm0ZK-73" value="" style="endArrow=classic;html=1;rounded=0;entryX=0;entryY=0.4;entryDx=0;entryDy=0;entryPerimeter=0;fillColor=#60a917;strokeColor=#2D7600;strokeWidth=2;" parent="1" target="u_31ab_1VjcwzQLcm0ZK-27" edge="1">
          <mxGeometry width="50" height="50" relative="1" as="geometry">
            <mxPoint x="6950" y="5360" as="sourcePoint" />
            <mxPoint x="7319.999999999969" y="5965" as="targetPoint" />
            <Array as="points">
              <mxPoint x="6960" y="5960" />
            </Array>
          </mxGeometry>
        </mxCell>
        <mxCell id="u_31ab_1VjcwzQLcm0ZK-74" value="" style="endArrow=classic;html=1;rounded=0;entryX=0.029;entryY=0.264;entryDx=0;entryDy=0;entryPerimeter=0;fillColor=#1ba1e2;strokeColor=#006EAF;strokeWidth=2;" parent="1" target="u_31ab_1VjcwzQLcm0ZK-26" edge="1">
          <mxGeometry width="50" height="50" relative="1" as="geometry">
            <mxPoint x="6950" y="5920" as="sourcePoint" />
            <mxPoint x="7300" y="5660" as="targetPoint" />
            <Array as="points">
              <mxPoint x="7030" y="5423" />
            </Array>
          </mxGeometry>
        </mxCell>
        <mxCell id="u_31ab_1VjcwzQLcm0ZK-70" value="" style="endArrow=classic;html=1;rounded=0;fillColor=#1ba1e2;strokeColor=#006EAF;strokeWidth=2;" parent="1" edge="1">
          <mxGeometry width="50" height="50" relative="1" as="geometry">
            <mxPoint x="6950" y="5920" as="sourcePoint" />
            <mxPoint x="7090" y="5920" as="targetPoint" />
          </mxGeometry>
        </mxCell>
        <mxCell id="u_31ab_1VjcwzQLcm0ZK-75" value="" style="endArrow=classic;html=1;rounded=0;entryX=0.002;entryY=0.582;entryDx=0;entryDy=0;entryPerimeter=0;fillColor=#1ba1e2;strokeColor=#006EAF;strokeWidth=2;" parent="1" target="u_31ab_1VjcwzQLcm0ZK-27" edge="1">
          <mxGeometry width="50" height="50" relative="1" as="geometry">
            <mxPoint x="6950" y="5920" as="sourcePoint" />
            <mxPoint x="7140" y="6010" as="targetPoint" />
            <Array as="points">
              <mxPoint x="6950" y="5970" />
            </Array>
          </mxGeometry>
        </mxCell>
      </root>
    </mxGraphModel>
  </diagram>
</mxfile>
